<svg width="246" height="246" viewBox="0 0 246 246" fill="none" xmlns="http://www.w3.org/2000/svg">
<rect width="246" height="246" rx="20" fill="url(#paint0_linear_611_90)"/>
<g filter="url(#filter0_d_611_90)">
<rect x="9" y="8" width="70" height="70" rx="20" fill="url(#paint1_linear_611_90)" fill-opacity="0.85"/>
<path d="M37.93 63L58.1667 51.4717V42.4133L40.2083 36.1833L43.7367 44.85L49.3217 47.4417L37.925 53.9333V25.81L29.8333 23V58.55L37.93 63Z" fill="#027F70"/>
</g>
<g filter="url(#filter1_d_611_90)">
<rect x="9" y="88" width="70" height="70" rx="20" fill="url(#paint2_linear_611_90)" fill-opacity="0.85"/>
</g>
<g filter="url(#filter2_d_611_90)">
<rect x="9" y="168" width="70" height="70" rx="20" fill="url(#paint3_linear_611_90)" fill-opacity="0.85"/>
</g>
<g filter="url(#filter3_d_611_90)">
<rect x="88" y="8" width="70" height="70" rx="20" fill="url(#paint4_linear_611_90)" fill-opacity="0.85"/>
</g>
<g filter="url(#filter4_d_611_90)">
<rect x="88" y="88" width="70" height="70" rx="20" fill="url(#paint5_linear_611_90)" fill-opacity="0.85"/>
</g>
<g filter="url(#filter5_d_611_90)">
<rect x="88" y="168" width="70" height="70" rx="20" fill="url(#paint6_linear_611_90)" fill-opacity="0.85"/>
</g>
<g filter="url(#filter6_d_611_90)">
<rect x="167" y="8" width="70" height="70" rx="20" fill="url(#paint7_linear_611_90)" fill-opacity="0.85"/>
</g>
<g filter="url(#filter7_d_611_90)">
<rect x="167" y="88" width="70" height="70" rx="20" fill="url(#paint8_linear_611_90)" fill-opacity="0.85"/>
</g>
<g filter="url(#filter8_d_611_90)">
<rect x="167" y="168" width="70" height="70" rx="20" fill="url(#paint9_linear_611_90)" fill-opacity="0.85"/>
</g>
<g clip-path="url(#clip0_611_90)">
<path d="M63.935 122.923L63.9067 122.912L63.9883 122.993C64.0233 122.993 63.935 122.923 63.935 122.923Z" fill="black"/>
<path d="M62.7867 123.863V123.937L62.9433 124.003L62.7867 123.863Z" fill="black"/>
<path d="M48.8883 130.127V130.133C48.91 130.143 48.9 130.135 48.8883 130.127Z" fill="url(#paint10_linear_611_90)"/>
<path d="M28.5717 127.967L33.21 125.993L33.2617 125.978L24.89 124.23L28.5717 127.967Z" fill="url(#paint11_linear_611_90)"/>
<path d="M35.4767 123.522C35.5683 123.522 35.66 123.527 35.75 123.535L35.74 123.533C35.8267 123.522 35.925 123.515 36.0267 123.515C36.1283 123.515 36.2267 123.522 36.325 123.535L36.3133 123.533L40.8817 116.425C40.5383 116.07 40.3267 115.583 40.325 115.048C40.3167 114.98 40.3133 114.9 40.3133 114.822C40.3133 114.743 40.3183 114.663 40.3267 114.587L40.325 114.597L34.7783 112.03L30.315 116.377L35.215 123.533C35.2933 123.525 35.385 123.522 35.4767 123.522Z" fill="url(#paint12_linear_611_90)"/>
<path d="M50.9317 117.022L51.89 111.085L48.3317 107.348L44.1467 113.79V113.878C44.3283 114.152 44.4533 114.477 44.4933 114.828L44.495 114.838L50.3367 117.317C50.505 117.187 50.7033 117.085 50.9183 117.023L50.9317 117.022Z" fill="url(#paint13_linear_611_90)"/>
<path d="M62.8783 124.008L52.99 119.78C52.7133 120.147 52.3 120.397 51.8283 120.458L51.82 120.46L50.7383 127.078C51.0483 127.393 51.2433 127.825 51.245 128.3L57.3133 129.575L62.8767 124.04L62.8783 124.008Z" fill="url(#paint14_linear_611_90)"/>
<path d="M57.8217 116.793L53.565 118.54L64 122.98L57.8217 116.793Z" fill="url(#paint15_linear_611_90)"/>
<path d="M33.6967 124.808H33.7C33.815 124.595 33.9483 124.412 34.1033 124.248L34.1 124.25L29.4767 117.335L24 122.66L33.6967 124.808Z" fill="url(#paint16_linear_611_90)"/>
<path d="M49.7433 118.732C49.74 118.693 49.7383 118.652 49.7383 118.608C49.7383 118.558 49.74 118.512 49.745 118.463V118.47C49.7467 118.465 49.7467 118.46 49.7467 118.455C49.7467 118.435 49.74 118.417 49.7283 118.402L44.2683 116.077C43.905 116.627 43.29 116.987 42.59 116.987C42.5667 116.987 42.5433 116.987 42.5217 116.985H42.1933L37.6767 123.97L49.7433 118.732Z" fill="url(#paint17_linear_611_90)"/>
<path d="M29.565 128.823L31.6233 130.867L33.96 127.235L33.8033 127.077L29.565 128.823Z" fill="url(#paint18_linear_611_90)"/>
<path d="M51.0167 129.522C50.8183 129.775 50.5583 129.972 50.26 130.092L50.2483 130.097L48.9767 137.99L56.3883 130.638C56.3883 130.638 56.3717 130.672 56.3533 130.672V130.622L51.0167 129.522Z" fill="url(#paint19_linear_611_90)"/>
<path d="M52.29 117.178C52.4867 117.278 52.6533 117.407 52.795 117.562L52.7967 117.563L56.72 115.815L53.0583 112.185L52.2383 117.125L52.29 117.178Z" fill="url(#paint20_linear_611_90)"/>
<path d="M43.8317 143L45.82 141.027L36.8017 127.95C36.5267 128.08 36.2017 128.157 35.8617 128.158C35.8583 128.158 35.855 128.158 35.8517 128.158C35.5867 128.158 35.33 128.113 35.0933 128.032L35.11 128.037L32.53 131.792L43.8317 143Z" fill="url(#paint21_linear_611_90)"/>
<path d="M37.955 125.332C38.0117 125.418 38.0683 125.522 38.12 125.628L38.1283 125.647L47.9483 127.672C48.2317 127.182 48.735 126.847 49.3183 126.798H49.325L50.39 120.287L50.165 120.095L37.955 125.332Z" fill="url(#paint22_linear_611_90)"/>
<path d="M43.9183 103L35.7217 111.048C35.7217 111.048 35.705 111.135 35.7217 111.153L41.13 113.458C41.4867 113.163 41.945 112.985 42.4483 112.985C42.475 112.985 42.5017 112.985 42.5283 112.987H42.525C42.7617 112.988 42.9917 113.027 43.205 113.097L43.1883 113.092L47.4083 106.492L43.9183 103Z" fill="url(#paint23_linear_611_90)"/>
<path d="M47.8633 128.905L47.86 128.893L37.92 126.85L37.78 127.077L46.7983 140.138L47.3383 139.597L48.8733 130.115C48.8733 130.115 48.8833 130.122 48.89 130.127V130.08C48.38 129.868 48 129.435 47.8633 128.905Z" fill="url(#paint24_linear_611_90)"/>
</g>
<g clip-path="url(#clip1_611_90)">
<path d="M119.95 125.433L119.933 133.867C119.933 141.883 119.917 142.333 119.833 142.333C119.533 142.333 117 142.5 116.15 142.583C115.6 142.633 114.483 142.75 113.683 142.85C112.867 142.95 112.2 143.017 112.183 143C112.183 142.983 112.167 133.983 112.167 122.983V103L119.95 125.433ZM133.817 103.017H126.1L126.083 111.867V120.748L133.8 142.983C133.833 142.967 133.833 133.95 133.833 122.967L133.817 103.017Z" fill="#AD080F"/>
<path d="M133.8 142.983H133.733C133.6 142.983 133.333 142.967 133.017 142.933C131.233 142.717 128.883 142.5 126.983 142.417C126.367 142.383 125.85 142.35 125.833 142.35C125.833 142.35 125.35 140.95 124.433 138.333C123.55 135.783 122.25 132.05 120.567 127.2L119.95 125.433L112.167 103H119.917L120.25 103.95L121.717 108.167L133.8 142.983Z" fill="#DF0D12"/>
</g>
<g clip-path="url(#clip2_611_90)">
<path d="M202 183.833C190.95 183.833 182 192.633 182 203.487C182 212.172 187.73 219.537 195.675 222.133C196.675 222.318 197.042 221.71 197.042 221.188C197.042 220.722 197.025 219.485 197.017 217.847C191.453 219.032 190.28 215.21 190.28 215.21C189.37 212.942 188.055 212.335 188.055 212.335C186.243 211.117 188.195 211.142 188.195 211.142C190.203 211.278 191.258 213.167 191.258 213.167C193.042 216.172 195.94 215.303 197.083 214.802C197.263 213.53 197.778 212.665 198.35 212.173C193.908 211.682 189.24 209.992 189.24 202.462C189.24 200.317 190.015 198.563 191.298 197.188C191.073 196.692 190.398 194.693 191.473 191.987C191.473 191.987 193.148 191.46 196.973 194.002C198.573 193.565 200.273 193.348 201.973 193.338C203.673 193.348 205.373 193.565 206.973 194.002C210.773 191.46 212.448 191.987 212.448 191.987C213.523 194.693 212.848 196.692 212.648 197.188C213.923 198.563 214.698 200.317 214.698 202.462C214.698 210.012 210.023 211.673 205.573 212.157C206.273 212.747 206.923 213.952 206.923 215.793C206.923 218.423 206.898 220.537 206.898 221.175C206.898 221.69 207.248 222.305 208.273 222.108C216.275 219.528 222 212.158 222 203.487C222 192.633 213.045 183.833 202 183.833Z" fill="#212121"/>
</g>
<g clip-path="url(#clip3_611_90)">
<path d="M189.762 111.697C188.082 110.71 185.935 111.293 184.965 113C184.8 113.295 184.675 113.613 184.598 113.943C184.145 115.862 185.305 117.79 187.188 118.25L187.187 127.748C186.535 127.91 185.94 128.258 185.477 128.753C184.14 130.178 184.192 132.437 185.592 133.797C186.993 135.158 189.213 135.103 190.55 133.68L198.638 138.425C198.542 138.757 198.493 139.098 198.493 139.44C198.495 141.408 200.065 143.002 202 143C202.373 143 202.742 142.938 203.098 142.82C204.938 142.202 205.938 140.183 205.328 138.31L213.365 133.59C213.613 133.873 213.907 134.117 214.227 134.305C215.908 135.292 218.053 134.707 219.023 133.002C219.195 132.7 219.325 132.373 219.403 132.033C219.852 130.123 218.692 128.207 216.815 127.752V118.253C217.138 118.173 217.445 118.048 217.73 117.882C219.415 116.9 220 114.715 219.033 113.002C218.865 112.708 218.658 112.44 218.415 112.207C217.008 110.847 214.783 110.903 213.447 112.335L205.36 107.585C205.457 107.253 205.508 106.905 205.507 106.557C205.505 104.59 203.935 102.998 202 103C201.662 103 201.323 103.048 201 103.147C199.148 103.705 198.088 105.687 198.638 107.575L190.547 112.325C190.317 112.077 190.052 111.865 189.762 111.697ZM204.593 137.035C203.95 136.32 203.027 135.872 202 135.872C201.007 135.872 200.112 136.287 199.477 136.96L191.383 132.207L191.418 132.068H212.582C212.6 132.148 212.62 132.227 212.643 132.305L204.593 137.035ZM204.517 109.047L212.622 113.81C212.61 113.848 212.6 113.89 212.59 113.93C212.125 115.84 213.267 117.772 215.143 118.243V127.755C215.1 127.767 215.052 127.778 215.008 127.793L204.422 109.143C204.457 109.112 204.487 109.082 204.517 109.047ZM201.025 109.99C201.662 110.177 202.338 110.177 202.978 109.99L213.567 128.633C213.082 129.105 212.738 129.71 212.578 130.373H191.423C191.263 129.713 190.922 129.11 190.44 128.638L201.025 109.99ZM191.373 113.798L199.478 109.045L199.577 109.145L188.993 127.793L188.855 127.755V118.242C188.897 118.23 188.937 118.22 188.98 118.207C190.838 117.662 191.91 115.69 191.373 113.798Z" fill="#DF34A6"/>
</g>
<path d="M113 209.158L106.84 202.998L126.842 183H139.16L113 209.158ZM139.158 201.455H126.84L122.227 206.068L128.387 212.228L139.158 201.455Z" fill="#42A5F5" fill-opacity="0.8"/>
<path d="M122.227 218.387L126.842 223H139.16L128.388 212.228L122.227 218.387Z" fill="#0D47A1"/>
<path d="M116.082 212.232L122.232 206.08L128.382 212.23L122.232 218.382L116.082 212.232Z" fill="#42A5F5"/>
<path d="M122.232 218.382L128.382 212.232L129.24 213.09L123.09 219.24L122.232 218.382Z" fill="url(#paint25_linear_611_90)"/>
<path d="M122.227 218.387L131.365 215.23L128.385 212.228L122.227 218.387Z" fill="url(#paint26_linear_611_90)"/>
<g clip-path="url(#clip4_611_90)">
<path d="M41.8917 192.705C40.3767 193.313 38.7467 193.758 37.0883 193.758C32.3467 190.99 25.9117 193.875 25.9117 199.938H25.9133C25.9133 202.198 27.34 205.297 29.57 206.055V206.145C27.9133 206.887 27.455 210.663 29.6583 212.02V212.11C27.2517 212.912 25.6667 214.457 25.6667 217.125C25.6667 221.723 29.9667 223 33.7317 223C38.3167 223 41.7267 221.33 41.7267 216.213C41.7267 209.918 32.825 212.24 32.825 208.82C32.825 207.615 33.46 207.15 34.56 206.918C39.4283 206.003 41.415 201.14 40.1567 197.705C40.7467 197.572 41.32 197.41 41.8917 197.213V192.705ZM33.6433 214.565C35.1417 214.565 37.275 214.832 37.275 216.795C37.275 218.742 35.5567 219.143 33.9517 219.143C32.4267 219.143 30.135 218.902 30.135 216.893C30.1433 214.905 32.0817 214.565 33.6433 214.565ZM33.3617 203.003C31.4233 203.003 30.6033 201.842 30.6033 199.985C30.6033 195.583 35.98 195.628 35.98 199.942C35.9783 201.753 35.2733 203.003 33.3617 203.003ZM62.3333 211.795V207.42C61.6283 207.912 60.615 208.162 59.7517 208.162C58.1217 208.162 57.83 206.553 57.83 205.232V197.098C60.625 197.098 62.3267 197.188 62.3267 197.188V192.945H57.83C57.83 191.722 57.785 190.5 57.9617 189.267H52.9633C53.1217 190.177 53.095 190.955 53.095 192.945H50.98V197.187C52.4517 196.955 52.4783 197.097 53.095 197.097V197.187H53.0517V205.017C53.0517 208.9 53.6067 212.668 58.3217 212.668C59.645 212.67 61.1617 212.447 62.3333 211.795ZM46.4867 183C44.725 183 43.4467 184.552 43.4467 186.277C43.4467 187.973 44.7417 189.51 46.4867 189.51C48.1867 189.51 49.465 187.948 49.465 186.277C49.465 184.608 48.23 183 46.4867 183ZM44.0267 192.928C44.185 194.248 44.1683 210.76 44.0267 212.375H48.92C48.7783 210.77 48.7617 194.232 48.92 192.928H44.0267Z" fill="#212121"/>
</g>
<g clip-path="url(#clip5_611_90)">
<path d="M102.177 47.4616C107.393 52.22 114.297 55.0833 121.96 55.0833C127.427 55.0833 133.787 53.35 138.163 50.0833C138.882 49.545 138.257 48.725 137.525 49.0616C132.615 51.1583 127.282 52.18 122.425 52.18C115.228 52.18 108.27 50.1766 102.63 46.87C102.137 46.575 101.765 47.0866 102.177 47.4616Z" fill="#FF9800"/>
<path d="M130.635 31.6C130.635 31.3733 130.513 31.2633 130.302 31.2633H129.067C129.048 31.2617 129.028 31.2617 129.01 31.2617C128.837 31.2617 128.677 31.3117 128.545 31.3983C128.452 31.4783 128.358 31.655 128.278 31.9233L125.977 40.9283L123.875 31.9233C123.823 31.6667 123.728 31.4783 123.623 31.3983C123.517 31.305 123.343 31.2633 123.09 31.2633H122.03C122.01 31.2617 121.992 31.2617 121.972 31.2617C121.795 31.2617 121.63 31.3117 121.493 31.3983C121.388 31.4783 121.308 31.655 121.242 31.9233L119.167 40.8217L116.93 31.9233C116.852 31.6667 116.772 31.4783 116.663 31.3983C116.572 31.305 116.398 31.2633 116.147 31.2633H114.842C114.63 31.2633 114.523 31.385 114.523 31.6L114.525 31.61C114.545 31.8 114.587 31.9833 114.643 32.14L117.768 42.5317C117.848 42.7867 117.942 42.975 118.048 43.055C118.155 43.15 118.315 43.19 118.555 43.19L119.698 43.1883C119.937 43.1883 120.123 43.1483 120.232 43.0533C120.337 42.9583 120.415 42.7833 120.482 42.515L122.532 33.86L124.595 42.5283C124.647 42.7983 124.74 42.9733 124.845 43.0667C124.953 43.1617 125.127 43.2017 125.378 43.2017H126.522C126.538 43.2033 126.553 43.2033 126.57 43.2033C126.74 43.2033 126.898 43.1533 127.028 43.0667C127.135 42.9867 127.228 42.8117 127.308 42.5433L130.513 32.1533L130.508 32.1667C130.55 32.0567 130.583 31.945 130.607 31.8167C130.62 31.735 130.635 31.6683 130.635 31.6ZM138.137 40.0033C138.137 40.0167 138.137 40.0267 138.137 40.04C138.137 40.5633 137.863 41.0217 137.445 41.28C136.993 41.5767 136.34 41.725 135.503 41.725C134.97 41.725 134.452 41.6717 133.92 41.5633C133.4 41.455 132.908 41.295 132.457 41.0933C132.323 41.04 132.203 40.985 132.123 40.9583C132.043 40.9317 131.963 40.9183 131.883 40.9183C131.685 40.9183 131.578 41.0533 131.578 41.335V42.02C131.58 42.1567 131.608 42.2867 131.658 42.3967C131.712 42.5183 131.857 42.6533 132.07 42.7717C132.417 42.9733 132.935 43.1483 133.6 43.31C134.265 43.47 134.955 43.55 135.647 43.55C136.327 43.55 136.95 43.455 137.548 43.2683C138.12 43.0933 138.612 42.8517 139.025 42.515C139.437 42.1917 139.757 41.79 139.997 41.3317C140.222 40.875 140.342 40.35 140.342 39.7717C140.342 39.0733 140.142 38.4417 139.73 37.89C139.318 37.34 138.625 36.9083 137.668 36.5983L135.778 35.995C135.073 35.7667 134.582 35.51 134.317 35.2533C134.05 34.9983 133.917 34.675 133.917 34.2983C133.917 33.7483 134.13 33.3583 134.542 33.1033C134.953 32.8467 135.553 32.7283 136.312 32.7283C136.342 32.7283 136.373 32.7283 136.405 32.7283C137.295 32.7283 138.142 32.92 138.865 33.2517L138.858 33.2483C139.012 33.335 139.182 33.3917 139.37 33.4133C139.57 33.4133 139.677 33.265 139.677 32.9817V32.3567C139.678 32.3433 139.678 32.3283 139.678 32.3133C139.678 32.1633 139.633 32.025 139.558 31.9133L139.557 31.91C139.452 31.7733 139.318 31.6583 139.158 31.5767C139.027 31.4933 138.84 31.4133 138.6 31.3333C138.362 31.255 138.108 31.1867 137.842 31.12C137.562 31.0667 137.283 31.0117 136.978 30.9717C136.685 30.9317 136.378 30.9183 136.087 30.9183C135.502 30.9183 134.943 30.9867 134.41 31.1467C133.877 31.3067 133.427 31.535 133.027 31.845C132.627 32.14 132.308 32.5167 132.068 32.9467C131.83 33.3783 131.708 33.875 131.708 34.4383C131.712 35.1767 131.962 35.8567 132.375 36.3883C132.813 36.9933 133.532 37.45 134.503 37.7567L136.432 38.3633C137.083 38.5783 137.537 38.8083 137.777 39.0617C138 39.295 138.137 39.615 138.137 39.9667C138.137 39.98 138.137 39.9917 138.137 40.0033C138.137 40.0033 138.137 40.0017 138.137 40.0033Z" fill="#212121"/>
<path d="M139.373 53.2817C141.715 51.2933 142.327 47.14 141.848 46.535C141.37 45.9433 137.258 45.4333 134.758 47.2067C134.372 47.49 134.438 47.8667 134.863 47.8133C136.287 47.6383 139.427 47.2633 139.987 47.9867C140.545 48.7 139.362 51.6983 138.828 53.0283C138.668 53.43 139.015 53.5917 139.373 53.2817Z" fill="#FF9800"/>
<path d="M109.533 36.2399C109.042 36.1733 108.577 36.1316 108.123 36.1316C106.753 36.1316 105.677 36.4816 104.865 37.1799C104.053 37.8766 103.655 38.8066 103.655 39.9483C103.655 41.0249 103.987 41.8849 104.638 42.5299C105.29 43.1749 106.182 43.4966 107.298 43.4966C108.868 43.4966 110.173 42.8783 111.21 41.6433L111.237 41.7049C111.363 41.9716 111.502 42.2299 111.623 42.4349L111.633 42.4516C111.772 42.6716 111.928 42.8799 112.102 43.0666C112.233 43.1883 112.367 43.2566 112.5 43.2566C112.628 43.2516 112.75 43.2066 112.847 43.1349L113.685 42.5716C113.858 42.4366 113.938 42.3016 113.938 42.1683C113.938 42.0733 113.912 41.9666 113.845 41.8599C113.658 41.5099 113.525 41.1866 113.418 40.8899C113.325 40.5949 113.272 40.1933 113.272 39.6949L113.245 39.6966V35.3399C113.245 33.8616 112.873 32.7583 112.142 32.0349C111.397 31.3083 110.24 30.9449 108.657 30.9449C108.632 30.9449 108.605 30.9449 108.58 30.9449C107.87 30.9449 107.18 31.0383 106.58 31.1999C105.928 31.3616 105.37 31.5633 104.905 31.8049L104.898 31.8066C104.757 31.8683 104.632 31.9649 104.532 32.0849C104.465 32.1799 104.438 32.3416 104.438 32.5566V33.2149C104.438 33.4966 104.532 33.6316 104.718 33.6316C104.793 33.6283 104.867 33.6149 104.93 33.5933L104.957 33.5866C105.117 33.5349 105.272 33.4766 105.397 33.4166C105.862 33.2283 106.342 33.0799 106.833 32.9583C107.325 32.8366 107.805 32.7849 108.272 32.7849C109.295 32.7849 110.013 32.9849 110.438 33.4033C110.852 33.8199 111.063 34.5316 111.063 35.5533V36.5349C110.533 36.4149 110.025 36.3066 109.533 36.2399ZM111.092 38.0416V38.6049C111.092 39.0616 111.037 39.4516 110.958 39.7733C110.878 40.0966 110.718 40.3799 110.505 40.6349C110.147 41.0383 109.72 41.3333 109.242 41.4949C108.762 41.6566 108.31 41.7366 107.872 41.7366C107.258 41.7366 106.793 41.5749 106.475 41.2383C106.142 40.9166 105.983 40.4449 105.983 39.8133C105.983 39.1416 106.195 38.6316 106.633 38.2699C107.073 37.9066 107.725 37.7316 108.617 37.7316C109.058 37.7316 109.492 37.7616 109.867 37.8116L109.923 37.8183C110.347 37.8749 110.762 37.9549 111.092 38.0416Z" fill="#212121"/>
</g>
<g clip-path="url(#clip6_611_90)">
<path d="M213.958 38.4133V48.7566C213.958 50.1316 215.062 51.23 216.405 51.23C217.775 51.23 219.083 50.1233 219.083 48.7566V38.4133C219.083 37.0383 217.767 35.9566 216.405 35.9566C215.062 35.9583 213.958 37.0383 213.958 38.4133ZM184.917 38.4133V48.7566C184.917 50.1233 186.233 51.23 187.595 51.23C188.965 51.23 190.042 50.1333 190.042 48.7566V38.4133C190.042 37.065 188.938 35.9566 187.595 35.9566C186.233 35.9583 184.917 37.065 184.917 38.4133ZM208.593 60.5383V55.0816H210.392C211.832 55.0816 213.007 53.9016 213.007 52.4366V36.4133H191.003V52.4366C191.003 53.9016 192.177 55.0816 193.635 55.0816H195.407L195.433 60.5383C195.433 63.835 200.345 63.8083 200.345 60.5383V55.0816H203.655V60.5383C203.655 63.815 208.593 63.825 208.593 60.5383ZM207.437 26.6683L209.135 23.525C209.383 23.0866 208.762 22.8016 208.538 23.1866L206.82 26.3566C203.857 25.0433 200.288 24.9716 197.183 26.3566L195.458 23.1766C195.247 22.8016 194.615 23.0766 194.863 23.515L196.562 26.6683C193.182 28.4016 190.903 31.7233 190.903 35.5466H213.068C213.068 31.7233 210.79 28.4016 207.437 26.6683ZM196.947 31.5283C196.45 31.5283 196.04 31.1 196.04 30.5916C196.04 30.0833 196.44 29.655 196.947 29.655C197.47 29.655 197.88 30.0833 197.88 30.5916C197.88 31.1 197.473 31.5283 196.947 31.5283ZM207.062 31.5283C206.538 31.5283 206.128 31.1 206.128 30.5916C206.128 30.0833 206.537 29.655 207.062 29.655C207.558 29.655 207.968 30.0833 207.968 30.5916C207.968 31.1 207.562 31.5283 207.062 31.5283Z" fill="#8BC34A"/>
</g>
<rect y="168" width="246" height="78" rx="20" fill="white" fill-opacity="0.8"/>
<g filter="url(#filter9_di_611_90)">
<path d="M36.2325 194.758V219H31.107V194.758H36.2325ZM48.5697 219.355C46.7073 219.355 45.1054 218.961 43.7638 218.171C42.4302 217.374 41.4043 216.27 40.6862 214.857C39.976 213.444 39.6209 211.819 39.6209 209.98C39.6209 208.118 39.9799 206.484 40.698 205.08C41.424 203.667 42.4539 202.566 43.7875 201.777C45.1212 200.98 46.7073 200.581 48.546 200.581C50.1322 200.581 51.5211 200.869 52.7127 201.446C53.9043 202.022 54.8473 202.83 55.5418 203.872C56.2362 204.914 56.619 206.137 56.69 207.542H51.9315C51.7973 206.634 51.4422 205.904 50.8661 205.352C50.2979 204.792 49.5522 204.511 48.6289 204.511C47.8477 204.511 47.165 204.724 46.5811 205.151C46.005 205.569 45.5552 206.18 45.2317 206.985C44.9081 207.79 44.7463 208.765 44.7463 209.909C44.7463 211.069 44.9042 212.056 45.2198 212.868C45.5434 213.681 45.9971 214.301 46.5811 214.727C47.165 215.153 47.8477 215.366 48.6289 215.366C49.205 215.366 49.7219 215.248 50.1796 215.011C50.6452 214.774 51.0279 214.431 51.3278 213.981C51.6355 213.523 51.8368 212.975 51.9315 212.336H56.69C56.6111 213.725 56.2323 214.948 55.5536 216.005C54.8829 217.055 53.9556 217.875 52.7719 218.467C51.5882 219.059 50.1875 219.355 48.5697 219.355ZM68.1335 219.355C66.2948 219.355 64.7047 218.964 63.3632 218.183C62.0295 217.394 60.9997 216.297 60.2737 214.893C59.5477 213.48 59.1847 211.842 59.1847 209.98C59.1847 208.102 59.5477 206.461 60.2737 205.056C60.9997 203.643 62.0295 202.546 63.3632 201.765C64.7047 200.976 66.2948 200.581 68.1335 200.581C69.9722 200.581 71.5584 200.976 72.892 201.765C74.2336 202.546 75.2674 203.643 75.9934 205.056C76.7194 206.461 77.0824 208.102 77.0824 209.98C77.0824 211.842 76.7194 213.48 75.9934 214.893C75.2674 216.297 74.2336 217.394 72.892 218.183C71.5584 218.964 69.9722 219.355 68.1335 219.355ZM68.1572 215.449C68.9937 215.449 69.6921 215.212 70.2524 214.739C70.8127 214.257 71.2348 213.602 71.5189 212.774C71.8109 211.945 71.9569 211.002 71.9569 209.945C71.9569 208.887 71.8109 207.944 71.5189 207.116C71.2348 206.287 70.8127 205.632 70.2524 205.151C69.6921 204.669 68.9937 204.429 68.1572 204.429C67.3128 204.429 66.6026 204.669 66.0265 205.151C65.4583 205.632 65.0282 206.287 64.7363 207.116C64.4522 207.944 64.3101 208.887 64.3101 209.945C64.3101 211.002 64.4522 211.945 64.7363 212.774C65.0282 213.602 65.4583 214.257 66.0265 214.739C66.6026 215.212 67.3128 215.449 68.1572 215.449ZM85.4039 208.489V219H80.3613V200.818H85.1671V204.026H85.3802C85.7827 202.969 86.4574 202.132 87.4044 201.517C88.3513 200.893 89.4995 200.581 90.849 200.581C92.1116 200.581 93.2124 200.858 94.1515 201.41C95.0906 201.962 95.8205 202.752 96.3414 203.777C96.8622 204.795 97.1226 206.011 97.1226 207.423V219H92.08V208.323C92.0879 207.21 91.8038 206.342 91.2277 205.719C90.6517 205.087 89.8586 204.772 88.8485 204.772C88.1698 204.772 87.5701 204.918 87.0492 205.21C86.5363 205.502 86.1338 205.928 85.8419 206.488C85.5578 207.041 85.4118 207.707 85.4039 208.489ZM116.225 206.003L111.608 206.287C111.529 205.892 111.36 205.537 111.099 205.222C110.839 204.898 110.496 204.642 110.069 204.452C109.651 204.255 109.15 204.156 108.566 204.156C107.785 204.156 107.126 204.322 106.589 204.653C106.053 204.977 105.784 205.411 105.784 205.955C105.784 206.39 105.958 206.756 106.305 207.056C106.652 207.356 107.248 207.597 108.093 207.778L111.383 208.441C113.151 208.804 114.469 209.388 115.337 210.193C116.205 210.998 116.639 212.056 116.639 213.366C116.639 214.557 116.288 215.603 115.586 216.502C114.891 217.402 113.936 218.104 112.721 218.609C111.514 219.107 110.121 219.355 108.542 219.355C106.136 219.355 104.218 218.854 102.79 217.852C101.369 216.842 100.537 215.469 100.292 213.732L105.252 213.472C105.402 214.206 105.765 214.766 106.341 215.153C106.917 215.532 107.655 215.721 108.554 215.721C109.438 215.721 110.148 215.551 110.685 215.212C111.23 214.865 111.506 214.419 111.514 213.875C111.506 213.417 111.312 213.042 110.934 212.75C110.555 212.45 109.971 212.221 109.182 212.063L106.033 211.436C104.257 211.081 102.936 210.465 102.068 209.589C101.207 208.714 100.777 207.597 100.777 206.24C100.777 205.072 101.093 204.065 101.724 203.221C102.364 202.377 103.259 201.726 104.411 201.268C105.571 200.81 106.929 200.581 108.483 200.581C110.78 200.581 112.587 201.067 113.905 202.037C115.23 203.008 116.004 204.33 116.225 206.003ZM127.624 219V194.758H137.188C139.027 194.758 140.593 195.109 141.888 195.811C143.182 196.506 144.168 197.472 144.847 198.711C145.533 199.942 145.877 201.363 145.877 202.973C145.877 204.582 145.53 206.003 144.835 207.234C144.141 208.465 143.135 209.424 141.817 210.11C140.507 210.797 138.92 211.14 137.058 211.14H130.962V207.033H136.23C137.216 207.033 138.029 206.863 138.668 206.524C139.315 206.176 139.796 205.699 140.112 205.091C140.436 204.476 140.597 203.77 140.597 202.973C140.597 202.168 140.436 201.465 140.112 200.866C139.796 200.258 139.315 199.788 138.668 199.457C138.021 199.118 137.2 198.948 136.206 198.948H132.749V219H127.624ZM154.154 194.758V219H149.111V194.758H154.154ZM169.853 211.259V200.818H174.895V219H170.054V215.697H169.865C169.454 216.763 168.772 217.619 167.817 218.266C166.87 218.913 165.714 219.237 164.349 219.237C163.133 219.237 162.064 218.961 161.141 218.408C160.217 217.856 159.495 217.071 158.975 216.053C158.462 215.035 158.201 213.815 158.193 212.395V200.818H163.236V211.495C163.244 212.568 163.532 213.417 164.1 214.04C164.668 214.664 165.43 214.975 166.385 214.975C166.992 214.975 167.56 214.837 168.089 214.561C168.618 214.277 169.044 213.859 169.368 213.306C169.699 212.754 169.861 212.071 169.853 211.259ZM194.057 206.003L189.44 206.287C189.361 205.892 189.192 205.537 188.931 205.222C188.671 204.898 188.328 204.642 187.902 204.452C187.483 204.255 186.982 204.156 186.398 204.156C185.617 204.156 184.958 204.322 184.421 204.653C183.885 204.977 183.616 205.411 183.616 205.955C183.616 206.39 183.79 206.756 184.137 207.056C184.485 207.356 185.08 207.597 185.925 207.778L189.215 208.441C190.983 208.804 192.301 209.388 193.169 210.193C194.037 210.998 194.471 212.056 194.471 213.366C194.471 214.557 194.12 215.603 193.418 216.502C192.723 217.402 191.768 218.104 190.553 218.609C189.346 219.107 187.953 219.355 186.375 219.355C183.968 219.355 182.05 218.854 180.622 217.852C179.201 216.842 178.369 215.469 178.124 213.732L183.084 213.472C183.234 214.206 183.597 214.766 184.173 215.153C184.749 215.532 185.487 215.721 186.386 215.721C187.27 215.721 187.98 215.551 188.517 215.212C189.062 214.865 189.338 214.419 189.346 213.875C189.338 213.417 189.144 213.042 188.766 212.75C188.387 212.45 187.803 212.221 187.014 212.063L183.865 211.436C182.089 211.081 180.768 210.465 179.9 209.589C179.039 208.714 178.609 207.597 178.609 206.24C178.609 205.072 178.925 204.065 179.556 203.221C180.196 202.377 181.091 201.726 182.243 201.268C183.403 200.81 184.761 200.581 186.315 200.581C188.612 200.581 190.419 201.067 191.737 202.037C193.062 203.008 193.836 204.33 194.057 206.003Z" fill="#192669"/>
</g>
<g filter="url(#filter10_di_611_90)">
<path d="M210.505 209.757C210.505 203.451 207.416 200.299 201.237 200.299L202.38 189H213.552V193.951H202.507L201.872 199.791C211.013 200.003 215.583 203.24 215.583 209.503C215.583 211.661 215.012 213.735 213.869 215.724C212.727 217.67 211.224 219.384 209.362 220.865C205.85 223.616 202.062 225.689 198 227.086V226.515L198.698 226.134C202.718 223.933 205.829 221.204 208.029 217.945C209.68 215.448 210.505 212.719 210.505 209.757Z" fill="#192669"/>
</g>
<defs>
<filter id="filter0_d_611_90" x="5" y="8" width="78" height="78" filterUnits="userSpaceOnUse" color-interpolation-filters="sRGB">
<feFlood flood-opacity="0" result="BackgroundImageFix"/>
<feColorMatrix in="SourceAlpha" type="matrix" values="0 0 0 0 0 0 0 0 0 0 0 0 0 0 0 0 0 0 127 0" result="hardAlpha"/>
<feOffset dy="4"/>
<feGaussianBlur stdDeviation="2"/>
<feComposite in2="hardAlpha" operator="out"/>
<feColorMatrix type="matrix" values="0 0 0 0 0 0 0 0 0 0 0 0 0 0 0 0 0 0 0.25 0"/>
<feBlend mode="normal" in2="BackgroundImageFix" result="effect1_dropShadow_611_90"/>
<feBlend mode="normal" in="SourceGraphic" in2="effect1_dropShadow_611_90" result="shape"/>
</filter>
<filter id="filter1_d_611_90" x="5" y="88" width="78" height="78" filterUnits="userSpaceOnUse" color-interpolation-filters="sRGB">
<feFlood flood-opacity="0" result="BackgroundImageFix"/>
<feColorMatrix in="SourceAlpha" type="matrix" values="0 0 0 0 0 0 0 0 0 0 0 0 0 0 0 0 0 0 127 0" result="hardAlpha"/>
<feOffset dy="4"/>
<feGaussianBlur stdDeviation="2"/>
<feComposite in2="hardAlpha" operator="out"/>
<feColorMatrix type="matrix" values="0 0 0 0 0 0 0 0 0 0 0 0 0 0 0 0 0 0 0.25 0"/>
<feBlend mode="normal" in2="BackgroundImageFix" result="effect1_dropShadow_611_90"/>
<feBlend mode="normal" in="SourceGraphic" in2="effect1_dropShadow_611_90" result="shape"/>
</filter>
<filter id="filter2_d_611_90" x="5" y="168" width="78" height="78" filterUnits="userSpaceOnUse" color-interpolation-filters="sRGB">
<feFlood flood-opacity="0" result="BackgroundImageFix"/>
<feColorMatrix in="SourceAlpha" type="matrix" values="0 0 0 0 0 0 0 0 0 0 0 0 0 0 0 0 0 0 127 0" result="hardAlpha"/>
<feOffset dy="4"/>
<feGaussianBlur stdDeviation="2"/>
<feComposite in2="hardAlpha" operator="out"/>
<feColorMatrix type="matrix" values="0 0 0 0 0 0 0 0 0 0 0 0 0 0 0 0 0 0 0.25 0"/>
<feBlend mode="normal" in2="BackgroundImageFix" result="effect1_dropShadow_611_90"/>
<feBlend mode="normal" in="SourceGraphic" in2="effect1_dropShadow_611_90" result="shape"/>
</filter>
<filter id="filter3_d_611_90" x="84" y="8" width="78" height="78" filterUnits="userSpaceOnUse" color-interpolation-filters="sRGB">
<feFlood flood-opacity="0" result="BackgroundImageFix"/>
<feColorMatrix in="SourceAlpha" type="matrix" values="0 0 0 0 0 0 0 0 0 0 0 0 0 0 0 0 0 0 127 0" result="hardAlpha"/>
<feOffset dy="4"/>
<feGaussianBlur stdDeviation="2"/>
<feComposite in2="hardAlpha" operator="out"/>
<feColorMatrix type="matrix" values="0 0 0 0 0 0 0 0 0 0 0 0 0 0 0 0 0 0 0.25 0"/>
<feBlend mode="normal" in2="BackgroundImageFix" result="effect1_dropShadow_611_90"/>
<feBlend mode="normal" in="SourceGraphic" in2="effect1_dropShadow_611_90" result="shape"/>
</filter>
<filter id="filter4_d_611_90" x="84" y="88" width="78" height="78" filterUnits="userSpaceOnUse" color-interpolation-filters="sRGB">
<feFlood flood-opacity="0" result="BackgroundImageFix"/>
<feColorMatrix in="SourceAlpha" type="matrix" values="0 0 0 0 0 0 0 0 0 0 0 0 0 0 0 0 0 0 127 0" result="hardAlpha"/>
<feOffset dy="4"/>
<feGaussianBlur stdDeviation="2"/>
<feComposite in2="hardAlpha" operator="out"/>
<feColorMatrix type="matrix" values="0 0 0 0 0 0 0 0 0 0 0 0 0 0 0 0 0 0 0.25 0"/>
<feBlend mode="normal" in2="BackgroundImageFix" result="effect1_dropShadow_611_90"/>
<feBlend mode="normal" in="SourceGraphic" in2="effect1_dropShadow_611_90" result="shape"/>
</filter>
<filter id="filter5_d_611_90" x="84" y="168" width="78" height="78" filterUnits="userSpaceOnUse" color-interpolation-filters="sRGB">
<feFlood flood-opacity="0" result="BackgroundImageFix"/>
<feColorMatrix in="SourceAlpha" type="matrix" values="0 0 0 0 0 0 0 0 0 0 0 0 0 0 0 0 0 0 127 0" result="hardAlpha"/>
<feOffset dy="4"/>
<feGaussianBlur stdDeviation="2"/>
<feComposite in2="hardAlpha" operator="out"/>
<feColorMatrix type="matrix" values="0 0 0 0 0 0 0 0 0 0 0 0 0 0 0 0 0 0 0.25 0"/>
<feBlend mode="normal" in2="BackgroundImageFix" result="effect1_dropShadow_611_90"/>
<feBlend mode="normal" in="SourceGraphic" in2="effect1_dropShadow_611_90" result="shape"/>
</filter>
<filter id="filter6_d_611_90" x="163" y="8" width="78" height="78" filterUnits="userSpaceOnUse" color-interpolation-filters="sRGB">
<feFlood flood-opacity="0" result="BackgroundImageFix"/>
<feColorMatrix in="SourceAlpha" type="matrix" values="0 0 0 0 0 0 0 0 0 0 0 0 0 0 0 0 0 0 127 0" result="hardAlpha"/>
<feOffset dy="4"/>
<feGaussianBlur stdDeviation="2"/>
<feComposite in2="hardAlpha" operator="out"/>
<feColorMatrix type="matrix" values="0 0 0 0 0 0 0 0 0 0 0 0 0 0 0 0 0 0 0.25 0"/>
<feBlend mode="normal" in2="BackgroundImageFix" result="effect1_dropShadow_611_90"/>
<feBlend mode="normal" in="SourceGraphic" in2="effect1_dropShadow_611_90" result="shape"/>
</filter>
<filter id="filter7_d_611_90" x="163" y="88" width="78" height="78" filterUnits="userSpaceOnUse" color-interpolation-filters="sRGB">
<feFlood flood-opacity="0" result="BackgroundImageFix"/>
<feColorMatrix in="SourceAlpha" type="matrix" values="0 0 0 0 0 0 0 0 0 0 0 0 0 0 0 0 0 0 127 0" result="hardAlpha"/>
<feOffset dy="4"/>
<feGaussianBlur stdDeviation="2"/>
<feComposite in2="hardAlpha" operator="out"/>
<feColorMatrix type="matrix" values="0 0 0 0 0 0 0 0 0 0 0 0 0 0 0 0 0 0 0.25 0"/>
<feBlend mode="normal" in2="BackgroundImageFix" result="effect1_dropShadow_611_90"/>
<feBlend mode="normal" in="SourceGraphic" in2="effect1_dropShadow_611_90" result="shape"/>
</filter>
<filter id="filter8_d_611_90" x="163" y="168" width="78" height="78" filterUnits="userSpaceOnUse" color-interpolation-filters="sRGB">
<feFlood flood-opacity="0" result="BackgroundImageFix"/>
<feColorMatrix in="SourceAlpha" type="matrix" values="0 0 0 0 0 0 0 0 0 0 0 0 0 0 0 0 0 0 127 0" result="hardAlpha"/>
<feOffset dy="4"/>
<feGaussianBlur stdDeviation="2"/>
<feComposite in2="hardAlpha" operator="out"/>
<feColorMatrix type="matrix" values="0 0 0 0 0 0 0 0 0 0 0 0 0 0 0 0 0 0 0.25 0"/>
<feBlend mode="normal" in2="BackgroundImageFix" result="effect1_dropShadow_611_90"/>
<feBlend mode="normal" in="SourceGraphic" in2="effect1_dropShadow_611_90" result="shape"/>
</filter>
<filter id="filter9_di_611_90" x="27.7737" y="194.758" width="170.031" height="31.2642" filterUnits="userSpaceOnUse" color-interpolation-filters="sRGB">
<feFlood flood-opacity="0" result="BackgroundImageFix"/>
<feColorMatrix in="SourceAlpha" type="matrix" values="0 0 0 0 0 0 0 0 0 0 0 0 0 0 0 0 0 0 127 0" result="hardAlpha"/>
<feOffset dy="3.33333"/>
<feGaussianBlur stdDeviation="1.66667"/>
<feComposite in2="hardAlpha" operator="out"/>
<feColorMatrix type="matrix" values="0 0 0 0 0 0 0 0 0 0 0 0 0 0 0 0 0 0 0.25 0"/>
<feBlend mode="normal" in2="BackgroundImageFix" result="effect1_dropShadow_611_90"/>
<feBlend mode="normal" in="SourceGraphic" in2="effect1_dropShadow_611_90" result="shape"/>
<feColorMatrix in="SourceAlpha" type="matrix" values="0 0 0 0 0 0 0 0 0 0 0 0 0 0 0 0 0 0 127 0" result="hardAlpha"/>
<feOffset dy="3.33333"/>
<feGaussianBlur stdDeviation="1.66667"/>
<feComposite in2="hardAlpha" operator="arithmetic" k2="-1" k3="1"/>
<feColorMatrix type="matrix" values="0 0 0 0 0 0 0 0 0 0 0 0 0 0 0 0 0 0 0.25 0"/>
<feBlend mode="normal" in2="shape" result="effect2_innerShadow_611_90"/>
</filter>
<filter id="filter10_di_611_90" x="197.275" y="189" width="19.0338" height="39.5367" filterUnits="userSpaceOnUse" color-interpolation-filters="sRGB">
<feFlood flood-opacity="0" result="BackgroundImageFix"/>
<feColorMatrix in="SourceAlpha" type="matrix" values="0 0 0 0 0 0 0 0 0 0 0 0 0 0 0 0 0 0 127 0" result="hardAlpha"/>
<feOffset dy="0.725444"/>
<feGaussianBlur stdDeviation="0.362722"/>
<feComposite in2="hardAlpha" operator="out"/>
<feColorMatrix type="matrix" values="0 0 0 0 0 0 0 0 0 0 0 0 0 0 0 0 0 0 0.25 0"/>
<feBlend mode="normal" in2="BackgroundImageFix" result="effect1_dropShadow_611_90"/>
<feBlend mode="normal" in="SourceGraphic" in2="effect1_dropShadow_611_90" result="shape"/>
<feColorMatrix in="SourceAlpha" type="matrix" values="0 0 0 0 0 0 0 0 0 0 0 0 0 0 0 0 0 0 127 0" result="hardAlpha"/>
<feOffset dy="0.725444"/>
<feGaussianBlur stdDeviation="0.362722"/>
<feComposite in2="hardAlpha" operator="arithmetic" k2="-1" k3="1"/>
<feColorMatrix type="matrix" values="0 0 0 0 0 0 0 0 0 0 0 0 0 0 0 0 0 0 0.25 0"/>
<feBlend mode="normal" in2="shape" result="effect2_innerShadow_611_90"/>
</filter>
<linearGradient id="paint0_linear_611_90" x1="6" y1="1.02232e-06" x2="234" y2="246" gradientUnits="userSpaceOnUse">
<stop stop-color="#B4B4B4" stop-opacity="0.921875"/>
<stop offset="1" stop-color="#9B9B9B"/>
</linearGradient>
<linearGradient id="paint1_linear_611_90" x1="44" y1="8" x2="44" y2="78" gradientUnits="userSpaceOnUse">
<stop stop-color="#A2B2B7"/>
<stop offset="1" stop-color="white"/>
</linearGradient>
<linearGradient id="paint2_linear_611_90" x1="44" y1="88" x2="44" y2="158" gradientUnits="userSpaceOnUse">
<stop stop-color="#A2B2B7"/>
<stop offset="1" stop-color="white"/>
</linearGradient>
<linearGradient id="paint3_linear_611_90" x1="44" y1="168" x2="44" y2="238" gradientUnits="userSpaceOnUse">
<stop stop-color="#A2B2B7"/>
<stop offset="1" stop-color="white"/>
</linearGradient>
<linearGradient id="paint4_linear_611_90" x1="123" y1="8" x2="123" y2="78" gradientUnits="userSpaceOnUse">
<stop stop-color="#A2B2B7"/>
<stop offset="1" stop-color="white"/>
</linearGradient>
<linearGradient id="paint5_linear_611_90" x1="123" y1="88" x2="123" y2="158" gradientUnits="userSpaceOnUse">
<stop stop-color="#A2B2B7"/>
<stop offset="1" stop-color="white"/>
</linearGradient>
<linearGradient id="paint6_linear_611_90" x1="123" y1="168" x2="123" y2="238" gradientUnits="userSpaceOnUse">
<stop stop-color="#A2B2B7"/>
<stop offset="1" stop-color="white"/>
</linearGradient>
<linearGradient id="paint7_linear_611_90" x1="202" y1="8" x2="202" y2="78" gradientUnits="userSpaceOnUse">
<stop stop-color="#A2B2B7"/>
<stop offset="1" stop-color="white"/>
</linearGradient>
<linearGradient id="paint8_linear_611_90" x1="202" y1="88" x2="202" y2="158" gradientUnits="userSpaceOnUse">
<stop stop-color="#A2B2B7"/>
<stop offset="1" stop-color="white"/>
</linearGradient>
<linearGradient id="paint9_linear_611_90" x1="202" y1="168" x2="202" y2="238" gradientUnits="userSpaceOnUse">
<stop stop-color="#A2B2B7"/>
<stop offset="1" stop-color="white"/>
</linearGradient>
<linearGradient id="paint10_linear_611_90" x1="48.895" y1="106.537" x2="48.895" y2="140.924" gradientUnits="userSpaceOnUse">
<stop stop-color="#39C4B6"/>
<stop offset="1" stop-color="#529AC3"/>
</linearGradient>
<linearGradient id="paint11_linear_611_90" x1="29.0767" y1="106.542" x2="29.0767" y2="140.922" gradientUnits="userSpaceOnUse">
<stop stop-color="#39C4B6"/>
<stop offset="1" stop-color="#529AC3"/>
</linearGradient>
<linearGradient id="paint12_linear_611_90" x1="35.5983" y1="106.542" x2="35.5983" y2="140.922" gradientUnits="userSpaceOnUse">
<stop stop-color="#39C4B6"/>
<stop offset="1" stop-color="#529AC3"/>
</linearGradient>
<linearGradient id="paint13_linear_611_90" x1="48.0183" y1="106.542" x2="48.0183" y2="140.922" gradientUnits="userSpaceOnUse">
<stop stop-color="#39C4B6"/>
<stop offset="1" stop-color="#529AC3"/>
</linearGradient>
<linearGradient id="paint14_linear_611_90" x1="56.8083" y1="106.542" x2="56.8083" y2="140.922" gradientUnits="userSpaceOnUse">
<stop stop-color="#39C4B6"/>
<stop offset="1" stop-color="#529AC3"/>
</linearGradient>
<linearGradient id="paint15_linear_611_90" x1="58.7817" y1="106.542" x2="58.7817" y2="140.922" gradientUnits="userSpaceOnUse">
<stop stop-color="#39C4B6"/>
<stop offset="1" stop-color="#529AC3"/>
</linearGradient>
<linearGradient id="paint16_linear_611_90" x1="29.0517" y1="106.542" x2="29.0517" y2="140.922" gradientUnits="userSpaceOnUse">
<stop stop-color="#39C4B6"/>
<stop offset="1" stop-color="#529AC3"/>
</linearGradient>
<linearGradient id="paint17_linear_611_90" x1="43.71" y1="106.542" x2="43.71" y2="140.922" gradientUnits="userSpaceOnUse">
<stop stop-color="#39C4B6"/>
<stop offset="1" stop-color="#529AC3"/>
</linearGradient>
<linearGradient id="paint18_linear_611_90" x1="31.7617" y1="106.542" x2="31.7617" y2="140.922" gradientUnits="userSpaceOnUse">
<stop stop-color="#39C4B6"/>
<stop offset="1" stop-color="#529AC3"/>
</linearGradient>
<linearGradient id="paint19_linear_611_90" x1="52.6833" y1="106.542" x2="52.6833" y2="140.922" gradientUnits="userSpaceOnUse">
<stop stop-color="#39C4B6"/>
<stop offset="1" stop-color="#529AC3"/>
</linearGradient>
<linearGradient id="paint20_linear_611_90" x1="54.48" y1="106.542" x2="54.48" y2="140.922" gradientUnits="userSpaceOnUse">
<stop stop-color="#39C4B6"/>
<stop offset="1" stop-color="#529AC3"/>
</linearGradient>
<linearGradient id="paint21_linear_611_90" x1="39.175" y1="106.542" x2="39.175" y2="140.922" gradientUnits="userSpaceOnUse">
<stop stop-color="#39C4B6"/>
<stop offset="1" stop-color="#529AC3"/>
</linearGradient>
<linearGradient id="paint22_linear_611_90" x1="44.1717" y1="106.542" x2="44.1717" y2="140.922" gradientUnits="userSpaceOnUse">
<stop stop-color="#39C4B6"/>
<stop offset="1" stop-color="#529AC3"/>
</linearGradient>
<linearGradient id="paint23_linear_611_90" x1="41.56" y1="106.542" x2="41.56" y2="140.922" gradientUnits="userSpaceOnUse">
<stop stop-color="#39C4B6"/>
<stop offset="1" stop-color="#529AC3"/>
</linearGradient>
<linearGradient id="paint24_linear_611_90" x1="43.3333" y1="106.542" x2="43.3333" y2="140.922" gradientUnits="userSpaceOnUse">
<stop stop-color="#39C4B6"/>
<stop offset="1" stop-color="#529AC3"/>
</linearGradient>
<linearGradient id="paint25_linear_611_90" x1="125.234" y1="215.275" x2="126.119" y2="216.16" gradientUnits="userSpaceOnUse">
<stop offset="0.2" stop-opacity="0.15"/>
<stop offset="0.85" stop-color="#616161" stop-opacity="0.01"/>
</linearGradient>
<linearGradient id="paint26_linear_611_90" x1="122.71" y1="215.578" x2="131.19" y2="215.578" gradientUnits="userSpaceOnUse">
<stop offset="0.2" stop-opacity="0.55"/>
<stop offset="0.85" stop-color="#616161" stop-opacity="0.01"/>
</linearGradient>
<clipPath id="clip0_611_90">
<rect width="40" height="40" fill="white" transform="translate(24 103)"/>
</clipPath>
<clipPath id="clip1_611_90">
<rect width="40" height="40" fill="white" transform="translate(103 103)"/>
</clipPath>
<clipPath id="clip2_611_90">
<rect width="40" height="40" fill="white" transform="translate(182 183)"/>
</clipPath>
<clipPath id="clip3_611_90">
<rect width="40" height="40" fill="white" transform="translate(182 103)"/>
</clipPath>
<clipPath id="clip4_611_90">
<rect width="40" height="40" fill="white" transform="translate(24 183)"/>
</clipPath>
<clipPath id="clip5_611_90">
<rect width="40" height="40" fill="white" transform="translate(102 23)"/>
</clipPath>
<clipPath id="clip6_611_90">
<rect width="40" height="40" fill="white" transform="translate(182 23)"/>
</clipPath>
</defs>
</svg>
